<svg xmlns="http://www.w3.org/2000/svg" xml:space="preserve" id="Ebene_1" x="0" y="0"
  style="enable-background:new 0 0 700 200" version="1.1" viewBox="0 0 700 200"><style>.st0{fill:#eb5b59}.st1{fill:#fff}</style><path d="M693.39 100.26c-7.27-27.7-42.74-23.78-60.32-8.98l-1.95 5.46c15.81-13.83 49.92-21.45 56.88 4.69 2.16 35.25-49.2 34.95-74.45 33.8-202.64-16.31-398.33-49.24-600.23 7.69 18.78 18.03 23.74 50.85 23.74 50.85 121.25-42.79 251.63-51.59 379.9-51.66 65.52-.21 130.86 4.39 196.6 2.67 28.76-1.43 83.88-3.5 79.83-44.52zM98.52 37.4c13.73 2.96 20.03 7.82 18.31 15.45-5.06-3.62-13.16-6.77-19.65-7.72-27.69 15.43-32.69 62.39-70.86 61.13-11.06 0-19.07-3.72-19.74-14.88l1.81-1.33c2.76 3.34 6.01 4.38 10.3 4.38 17.66-.72 23.57-20.81 33.38-31.75C62 50.84 70.48 45.98 81.64 43.69v-.48c-14.12-1.9-49.74-2.52-48.16 15.26 0 5.43 3.05 8.68 7.24 10.21l-1.34 1.91c-11 2.33-23.12-4.14-22.6-14.4C14.91 29.54 75.9 32.32 98.52 37.4z" class="st0"/><path d="M127.93 69.15c-4.33 5.76-13.32 16.12-13.83 23.17-.28 5.81 8.77 3.34 11.35.86l-1.14 3.91c-4.79 5.99-31.64 12.66-31.85-2.48.08-6.98 7.61-15.74 12.02-21.08.38-.38.38-.67-.19-.67h-8.01c-1.24.19-13.73 19.46-19.65 29.85-3.88-.61-5.5-2.6-3.43-7.24 4.48-9.25 15.83-25.66 21.17-32.33 3.24-4.1 5.63-4.58 14.02-4.39 5.96-.39-.73 5.85-2.38 8.3h20.79c.17.01 1.23 2.01 1.13 2.1zM194.14 67.06l1.24 1.81c-8.05 10.59-12.46 14.65-14.4 23.56-.29 5.4 8.01 3.54 10.58.76l-1.15 3.91c-3.84 5.09-27.89 11.88-31.37.67-8.5 8.55-32.5 9.52-31.95-6.58.59-14.82 15.42-25.75 30.23-25.17 6.39 0 10.49 1.91 12.49 5.15 1.34-1.53 2.95-3.05 4.29-4.1h20.04zm-30.52 5.53c-7.47-.06-14.19 10.82-14.59 18.31-.31 6.21 5.67 6.34 9.54 3.05.32-6.52 4.9-14.23 8.77-19.74-.76-1.24-2.57-1.62-3.72-1.62zM237.95 76.31c-3.07-4.48-11.13-3.27-15.64.76-15.65 15.93-3.19 26.06 13.26 14.59l-1.05 4.86c-7.74 8.6-41.98 13.18-41.2-5.72 0-7.63 4.2-13.73 10.3-18.31 7.74-6.77 32.87-12.15 36.24.76l-1.91 3.06zM239.12 94.04c0-6.39 4.1-14.21 9.35-21.65-2.19-4.11-.41-6.25 5.44-7.15 3.53-4.19 6.86-7.91 9.15-9.82h19.65l.57 1.34c-1.91 2.29-4.96 6.01-8.39 10.3h13.06l-4.1 5.63h-13.06c-6.01 8.11-10.49 15.17-10.49 19.55-.14 7.1 10.45 4.04 14.21.76l-1.15 3.91c-3.57 5.91-33.55 13.82-34.24-2.87z" class="st0"/><path d="M296.55 104.06c-24.29.84-23.53-22.27-7.34-32.33 9.03-7.49 37.3-10.44 38.72 4.38 2.96-1.33 5.44 1.24 3.44 4.67-2.58 4.29-5.34 8.11-8.39 11.45-6.88 7.25-15.18 11.83-26.43 11.83zm18.78-31.67c-6.62-1.57-23.37 23.19-12.3 24.61 5.88 1.26 22.43-22.82 12.3-24.61zm26.23 1.44c-5.82 0-10.2-1.53-9.82-5.63-.04-7.06 18.76-5.99 23.65-4.96l-2.95 3.82h15.74c.19 0 1.24 2 1.15 2.1-4.34 5.76-13.32 16.12-13.83 23.17-.23 5.95 8.76 3.26 11.35.86l-1.15 3.91c-12.03 11.31-44.53 9.77-26.7-14.88 1.72-2.48 3.91-5.05 6.39-8.01 1.18-1.24-2.94-.14-3.83-.38zM420.78 104.63c-14.4 0-25.56-3.53-30.61-10.01l1.53-8.39c7.45 10.04 40.01 13.95 40.44.77 0-4.77-5.34-6.87-15.64-12.88-8.2-4.77-12.02-10.59-12.02-17.93-1.74-24.02 44.46-27.72 60.37-12.21l-1.62 7.44c-5.15-3.82-12.59-6.87-20.98-7.06-10.11-.19-14.78 2.76-14.78 8.3 0 4.01 4.01 6.67 11.64 10.78 28.42 13.06 15.18 42.09-18.33 41.19z" class="st0"/><path d="M459.72 94.04c0-6.39 4.1-14.21 9.35-21.65-2.19-4.11-.41-6.25 5.44-7.15 3.53-4.19 6.87-7.91 9.15-9.82h19.65l.57 1.34c-1.91 2.29-4.96 6.01-8.39 10.3h13.06l-4.1 5.63h-13.06c-6.01 8.11-10.49 15.17-10.49 19.55-.14 7.1 10.45 4.04 14.21.76l-1.14 3.91c-3.58 5.91-33.55 13.82-34.25-2.87z" class="st0"/><path d="M517.15 104.06c-24.29.84-23.53-22.27-7.34-32.33 9.03-7.49 37.3-10.44 38.72 4.38 2.96-1.33 5.44 1.24 3.44 4.67-2.58 4.29-5.34 8.11-8.39 11.45-6.88 7.25-15.17 11.83-26.43 11.83zm18.79-31.67c-6.62-1.57-23.37 23.19-12.3 24.61 5.87 1.26 22.42-22.82 12.3-24.61zm26.23 1.44c-5.82 0-10.2-1.53-9.82-5.63-.04-7.06 18.76-5.99 23.65-4.96l-2.95 3.82h15.74c.19 0 1.24 2 1.15 2.1-4.34 5.76-13.32 16.12-13.83 23.17-.23 5.95 8.76 3.26 11.35.86l-1.15 3.91c-12.03 11.31-44.53 9.77-26.7-14.88 1.72-2.48 3.91-5.05 6.39-8.01 1.17-1.24-2.94-.14-3.83-.38z" class="st0"/><path d="M607.89 104.06c-23.29 1.18-23.79-20.98-8.2-31.66 5.82-4.1 13.64-6.96 23.75-6.96 15.85-.89 20.15 13 7.06 19.55-5.63 2.86-12.97 3.81-19.26 3.81-1.43 12.63 16.7 7.1 21.84 2.48l-1.05 4.77c-4.78 4.19-12.98 8.01-24.14 8.01zm4.2-18.88c6.11.27 16.61-2.87 16.69-9.35 0-1.53-1.05-2.77-3.24-2.77-5.79-.19-11.61 6.39-13.45 12.12z" class="st0"/><path d="M233.88 17.21c-1.27-1.94-3.84-2.21-6.19-2.21-3.51-.1-8.2-.08-10.56 2.07l.64-2.07c-1.29.04-3.76-.15-4.97.27h-10.01l-2.24 5.03c.7-4.04-3.25-5.52-6.76-5.3-4.75-.25-9.67.26-12.19 4.19l1.75-3.92 3.62-8.04h-26.18l-2.16 3.75 1.19-3.75h-14.44l-18.73 42.01h41.57l2.28-5.11c-.71 4.07 3.24 5.62 6.78 5.39 4.68.25 9.57-.26 12.09-4.09l-1.7 3.82h11.2l8.52-19.16c1.39-3.13 2.4-3.61 3.94-3.67l-5.75 12.81c-1.52 3.41-2.27 6.09-.97 8.08 1.87 2.85 6.41 2.1 9.46 2.21 6.06 0 8.95-2.11 11.88-8.67l6.98-15.55c1.5-3.41 2.25-6.09.95-8.09zM186.27 32.5l.46-1.02h8.84l-.45 1.02h-8.85zM399.62 17.22c-1.26-1.96-3.86-2.22-6.24-2.22-4.46-.23-9.25.26-11.68 3.7l5.11-11.47h-11.2l-3.73 8.33c-4.3-1.65-9.63-.08-11.54 4.17.85-5.18-5.27-5.15-8.34-4.46h-10.31l-2.24 5.03c.7-4.04-3.25-5.52-6.76-5.3-3.36-.1-7.75-.04-10.02 1.9l.73-1.63h-2.45l2.92-6.52h-11.2l-2.92 6.52h-1.62l-1.08 2.4c-1.12-3.57-5.77-2.73-8.18-2.4h-10.31l-2.29 5.14c.72-4.08-3.22-5.65-6.77-5.41-3.51-.1-8.2-.08-10.56 2.07l.64-2.07c-1.29.04-3.76-.15-4.97.27h-8.54l3.61-8.04h-18.27l-18.73 42.01h11.96l6.96-15.65h4.84l-6.97 15.65h11.2l8.52-19.16c1.39-3.13 2.4-3.61 3.94-3.67l-5.75 12.81c-3.28 6.23-1.44 10.7 5.23 10.3 4.81.23 9.99-.14 12.57-4.2l-1.75 3.93h21.09l10.79-24.29h.1l-6.88 15.42c-1.87 4.31-2.36 5.74-1.92 8.86h10.81c-.44-5.25 7.27-19.18 9.19-24.29h.74l-6.41 14.26c-3.28 6.23-1.44 10.7 5.23 10.3 4.65.25 9.58-.27 12.06-4.03l-1.67 3.76h21.09l1.71-3.84c-.16 5.22 6.63 4.5 9.61 3.42l.06.42h9.95c.2-1.59.49-3.17 1.2-4.69-.51 5.25 5.78 5.1 9.55 4.97 6.17 0 9.07-2.11 11.94-8.69 1.79-3.81 3.36-8.09.18-11.14h4.72c1.5-3.44 5.19-9.68 3.05-12.47zm-153.07 5.23 1.82-4.07h4.85l-1.81 4.07h-4.86zm132.07 11.89h-3.9l2.11-4.74c-.08 1.82.45 3.38 1.79 4.74z"/><path d="M144.89 45.49a1.001 1.001 0 0 1-.91-1.41c.7-1.55 1.6-3.59 2.6-5.86.28-.62.56-1.26.84-1.91-2 3.39-3.86 6.52-5.15 8.69-.18.3-.51.49-.86.49h-5.38a1 1 0 0 1-.96-1.28c.38-1.26 2.05-6.88 2.43-8.13-1.13 2.55-3.93 8.82-3.93 8.82-.16.36-.52.59-.91.59h-6.63c-.34 0-.65-.17-.84-.46s-.21-.64-.07-.95l16.95-38.03c.16-.36.52-.59.91-.59h10.43a.995.995 0 0 1 .95 1.31c-.4 1.22-.92 2.9-1.52 4.8-.49 1.55-1.02 3.27-1.58 5.01 1.36-2.38 2.73-4.75 3.88-6.75.89-1.53 1.66-2.87 2.23-3.86.18-.31.51-.5.87-.5h11.03c.34 0 .65.17.84.46s.21.64.07.95L153.24 44.9c-.16.36-.52.59-.91.59h-7.44z" class="st1"/><path d="m169.28 6.46-16.95 38.03h-7.44c2.72-6.07 8.58-19.51 11.45-25.37-3.56 6.18-11.29 19.27-14.93 25.37h-5.38c1.84-6.12 5.67-19.17 7.71-25.21-2.38 5.72-8.49 19.39-11.08 25.21h-6.63l16.95-38.03h10.43c-1.57 4.81-5.09 16.61-7.02 21.19 2.2-4.66 9.24-16.59 11.86-21.19h11.03M169.29 4.46h-11.04c-.72 0-1.38.39-1.74 1.01-.41.73-.94 1.64-1.54 2.67.11-.35.21-.67.31-.97.09-.22.13-.46.13-.71a2 2 0 0 0-2-2h-10.44c-.79 0-1.51.46-1.83 1.19l-16.95 38.03c-.28.62-.22 1.33.15 1.9.37.57 1 .91 1.68.91h6.63c.69 0 1.32-.35 1.68-.92.02.04.05.08.08.11.38.51.97.81 1.61.81h5.38c.7 0 1.36-.37 1.72-.97.01-.01.01-.02.02-.04.02.03.04.07.06.1.37.57 1 .91 1.68.91h7.44c.79 0 1.51-.46 1.83-1.19l16.91-37.94c.14-.27.21-.58.21-.9.01-1.1-.88-2-1.98-2zm-.01 4z"/><path d="M152.48 44.72h-7.95c1.31-2.93 8.12-18.33 9.35-20.93-1.53 2.75-10.58 17.95-12.34 20.93h-5.82c.87-2.85 5.41-18.22 6.27-20.77-1.06 2.58-7.92 17.93-9.18 20.77h-7.13l17.16-38.49h10.9c-.64 1.93-5.01 16.04-5.64 17.61.86-1.83 8.89-15.57 10.03-17.61h11.52l-17.17 38.49zm-7.24-.46h6.94l16.75-37.57h-10.54c-2.64 4.63-9.58 16.4-11.79 21.06l-.42-.19c1.89-4.45 5.4-16.18 6.92-20.88h-9.97l-16.75 37.57h6.12c2.63-5.92 8.58-19.23 11.01-25.07l.43.16c-2.32 6.93-5.63 18.32-7.62 24.91h4.94c3.55-5.95 11.5-19.42 14.86-25.26l.4.22c-2.66 5.47-8.68 19.24-11.28 25.05z"/><path d="M156.4 45.49a.998.998 0 0 1-.91-1.41l13.35-29.99c.16-.36.52-.59.91-.59h6.85a.998.998 0 0 1 .91 1.41L164.16 44.9c-.16.36-.52.59-.91.59h-6.85zm14.41-32.38c-.34 0-.66-.17-.84-.46-.18-.29-.21-.64-.07-.95l2.54-5.65c.16-.36.52-.59.91-.59h6.85a1.001 1.001 0 0 1 .91 1.41l-2.54 5.65c-.16.36-.52.59-.91.59h-6.85z" class="st1"/><path d="m180.2 6.46-2.54 5.65h-6.85l2.54-5.65h6.85m-3.6 8.04-13.35 29.99h-6.85l13.35-29.99h6.85m3.6-10.04h-6.85c-.79 0-1.5.46-1.82 1.18l-2.54 5.65c-.2.45-.23.95-.09 1.4-.42.2-.77.55-.97.99l-13.35 29.99c-.28.62-.22 1.33.15 1.9.37.57 1 .91 1.68.91h6.85c.79 0 1.51-.46 1.83-1.19l13.35-29.99c.2-.45.22-.94.09-1.4.42-.2.77-.54.97-.99l2.54-5.65c.28-.62.22-1.34-.14-1.91a2.09 2.09 0 0 0-1.7-.89zm0 4zm-3.6 8.04z"/><path d="M163.4 44.72h-7.35l13.56-30.45h7.35L163.4 44.72zm-6.64-.46h6.34l13.15-29.53h-6.34l-13.15 29.53zm21.05-31.92h-7.35l2.75-6.11h7.35l-2.75 6.11zm-6.64-.46h6.34l2.33-5.19h-6.34l-2.33 5.19z"/><path d="M177.57 45.82c-.39 0-.79-.02-1.21-.07v-.03c-.53.04-1.38.04-2.77.04-2.09 0-4.36-.21-5.37-1.76-1.05-1.62-.34-4.03 1.05-7.14l6.98-15.54c2.64-6.78 6.43-8.15 11.69-8.15.69 0 1.4.02 2.16.06.35-.02.67-.04.98-.04 2.12 0 3.57.6 4.3 1.77 1.43 2.28-.3 5.84-1.96 9.29-.5 1.02-.96 1.99-1.31 2.85a1 1 0 0 1-.93.63h-6.41c-.34 0-.66-.17-.84-.46-.18-.29-.21-.65-.07-.96l1.95-4.24c.12-.24.19-.42.25-.55-.06 0-.12.01-.19.01-.5 0-.65 0-1.28 1.38l-6.29 14.01c-.12.24-.2.42-.25.56.06 0 .12-.01.19-.01.5 0 .65 0 1.28-1.38l2.17-4.78c.16-.36.52-.59.91-.59h6.41c.34 0 .65.17.84.45.18.28.21.64.08.95-.29.67-.58 1.35-.87 2.04-2.32 5.47-4.93 11.66-11.49 11.66z" class="st1"/><path d="M187.94 14.17c.69 0 1.41.02 2.17.06.34-.03.67-.04.97-.04 7.49 0 2.02 7.76.1 12.53h-6.41l1.95-4.24c.78-1.56.47-1.97-.55-1.97-.11 0-.24.01-.37.01-1.09 0-1.47.54-2.12 1.96l-6.3 14.02c-.78 1.56-.47 1.97.55 1.97.11 0 .24-.01.37-.01 1.09 0 1.47-.54 2.12-1.95l2.17-4.78H189c-2.59 5.89-4.77 13.1-11.42 13.1-.35 0-.72-.02-1.1-.06h-2.88c-5.32 0-6.01-1.68-3.41-7.5l6.98-15.54c2.45-6.33 5.74-7.56 10.77-7.56m0-2c-5.51 0-9.77 1.5-12.62 8.78l-6.96 15.49c-1.52 3.42-2.27 6.1-.97 8.1 1.27 1.96 3.85 2.22 6.21 2.22h1.44c.49 0 .89 0 1.22-.01.45.05.89.07 1.32.07 7.22 0 10.08-6.8 12.39-12.27.29-.68.57-1.36.86-2.02a2.008 2.008 0 0 0-1.83-2.81h-6.38l.72-1.6c.37.38.89.6 1.43.6h6.41c.82 0 1.55-.5 1.86-1.25.33-.83.79-1.78 1.28-2.79 1.79-3.69 3.63-7.51 1.91-10.25-.93-1.48-2.66-2.24-5.15-2.24-.31 0-.65.01-.99.04-.83-.04-1.52-.06-2.15-.06z"/><path d="M176.48 44.99c-6.35.22-10.27-.06-6.5-7.82l6.98-15.54c2.66-5.99 4.87-7.63 10.27-7.63 2.17-.02 7.04-.2 7.61 1.4 1.63 1.6-2.41 8.96-3.51 11.55h-6.92l2.1-4.56c.45-1.02.89-1.81-.71-1.63-.93 0-1.26.41-1.91 1.82L177.6 36.6c-.45 1.02-.89 1.81.71 1.63 1.63.49 3.32-5.45 4.14-6.74h6.91c-2.88 6.43-5.08 14.33-12.88 13.5zm10.74-30.53c-5.23 0-7.25 1.51-9.85 7.36l-6.98 15.54c-1.43 3.21-1.77 4.99-1.14 5.97.51 1.41 5.27 1.22 7.22 1.2 7.3.76 9.47-6.42 12.16-12.58h-5.91c-.95 1.5-2.32 7.12-4.44 6.74-1.59.17-2.01-.63-1.13-2.28l6.29-14.02c.65-1.42 1.1-2.09 2.33-2.09 3.47-.42.2 3.71-.66 6.19h5.9c3.29-8.04 8.03-12.79-3.79-12.03z"/><path d="M187.04 45.49a.998.998 0 0 1-.91-1.41l13.35-29.99c.16-.36.52-.59.91-.59h6.52c.34 0 .65.17.84.46.04.07.08.14.1.21.93-.57 2.01-.94 3.26-.94.11 0 .22 0 .33.01.33.02.63.19.8.48.17.28.2.63.06.93l-3.29 7.39c-.16.36-.52.59-.91.59-.01 0-.26-.01-.37-.01-2.02 0-3.34.67-4.94 4.3-.06.13-8 17.98-8 17.98-.16.36-.52.59-.91.59h-6.84z" class="st1"/><path d="M211.12 14.22c.09 0 .19 0 .28.01l-3.29 7.39c-.12 0-.25-.01-.37-.01-2.74 0-4.28 1.32-5.86 4.9l-8 17.98h-6.85L200.4 14.5h6.52l-1.89 4.24c1.77-2.87 3.64-4.52 6.09-4.52M211.12 12.22c-1.13 0-2.13.25-3.01.67a2.01 2.01 0 0 0-1.18-.39h-6.52c-.79 0-1.51.46-1.83 1.19l-13.35 29.99c-.28.62-.22 1.33.15 1.9.37.57 1 .91 1.68.91h6.85c.79 0 1.51-.47 1.83-1.19l8-17.98c1.52-3.45 2.58-3.71 4.03-3.71.09 0 .19 0 .29.01h.08c.79 0 1.5-.46 1.83-1.19l3.29-7.39c.27-.6.22-1.3-.12-1.86a2.01 2.01 0 0 0-1.6-.95c-.17-.01-.29-.01-.42-.01z"/><path d="M194.04 44.72h-7.35l13.56-30.45h7.02l-1.08 2.42c1.73-2.08 3.43-2.83 5.57-2.7l-3.5 7.85c-2.92-.14-4.49.96-6.16 4.75 0 .01-8.06 18.13-8.06 18.13zm-6.64-.46h6.34l7.94-17.85c1.68-3.79 3.36-5.11 6.28-5.03l3.09-6.93c-2.11-.01-4 1.43-5.83 4.4l-.41-.21 1.75-3.91h-6.02L187.4 44.26z"/><path d="M209.47 45.83c-.76 0-1.56-.03-2.4-.07h-.02c-2.04 0-4.3-.21-5.31-1.76-1.05-1.62-.34-4.03 1.05-7.14l6.98-15.54c2.59-6.78 6.46-8.15 11.85-8.15.77 0 1.58.03 2.43.07h.02c2.04 0 4.3.21 5.3 1.76 1.05 1.62.35 4.03-1.04 7.15l-6.98 15.54c-2.61 6.76-6.49 8.14-11.88 8.14zm9.91-24.3c-.5 0-.65 0-1.28 1.38l-6.29 14.01c-.12.24-.2.42-.25.56.06 0 .12-.01.19-.01.5 0 .65 0 1.28-1.38l6.29-14.01c.12-.24.2-.42.25-.56-.06 0-.13 0-.19.01z" class="st1"/><path d="M221.62 14.16c.76 0 1.55.03 2.39.06 5.27 0 6.02 1.63 3.41 7.5l-6.98 15.54c-2.46 6.37-5.93 7.56-10.97 7.56-.75 0-1.53-.03-2.35-.07-5.32 0-6-1.68-3.41-7.5l6.98-15.54c2.44-6.39 5.88-7.55 10.93-7.55m-10.18 24.31c.11 0 .24-.01.37-.01 1.09 0 1.47-.54 2.12-1.95l6.3-14.02c.78-1.56.47-1.97-.55-1.97-.11 0-.24.01-.37.01-1.09 0-1.47.54-2.12 1.96l-6.3 14.02c-.78 1.55-.47 1.96.55 1.96m10.18-26.31c-5.64 0-9.97 1.5-12.78 8.79l-6.95 15.49c-1.52 3.42-2.27 6.1-.97 8.1 1.26 1.94 3.82 2.21 6.16 2.22.94.04 1.7.07 2.4.07 5.65 0 9.99-1.5 12.82-8.79l6.96-15.49c1.52-3.42 2.27-6.1.97-8.1-1.26-1.94-3.81-2.21-6.16-2.21-.99-.06-1.76-.08-2.45-.08z"/><path d="M210.38 44.99c-6.35.18-10.82.21-6.88-7.82l6.98-15.54c2.66-5.99 4.87-7.63 10.27-7.63 6.35-.18 10.8-.21 6.88 7.82l-6.98 15.54c-2.64 5.92-4.95 7.63-10.27 7.63zm10.36-30.53c-5.23 0-7.25 1.51-9.85 7.36l-6.98 15.54c-3.8 7.72.51 7.26 6.46 7.17 5.16 0 7.28-1.58 9.85-7.36l6.98-15.54c3.79-7.72-.5-7.26-6.46-7.17zm-8.93 24.23c-1.59.17-2.01-.63-1.13-2.28l6.29-14.02c.65-1.42 1.1-2.09 2.33-2.09 1.59-.17 2.01.63 1.13 2.28l-6.3 14.02c-.64 1.42-1.08 2.09-2.32 2.09zm7.5-17.93c-.93 0-1.26.41-1.91 1.82l-6.3 14.02c-.45 1.02-.89 1.81.71 1.63.93 0 1.26-.41 1.91-1.82l6.3-14.02c.45-1.02.89-1.81-.71-1.63z"/><path d="M222.07 45.49c-.34 0-.65-.17-.84-.46s-.21-.64-.07-.95l16.95-38.03c.16-.36.52-.59.91-.59h13.91a1.001 1.001 0 0 1 .91 1.41l-3.22 7.17c-.16.36-.52.59-.91.59h-5.66l-2.7 6.04h3.35c.34 0 .65.17.84.45.18.28.21.64.08.95l-3.17 7.17c-.16.36-.52.6-.91.6h-4.24l-6.69 15.05c-.16.36-.52.59-.91.59h-7.63z" class="st1"/><path d="m252.93 6.46-3.22 7.17h-6.3l-3.6 8.04h4.89l-3.17 7.17h-4.89l-6.96 15.65h-7.61l16.95-38.03h13.91m0-2h-13.91c-.79 0-1.51.46-1.83 1.19l-16.95 38.03c-.28.62-.22 1.33.15 1.9.37.57 1 .91 1.68.91h7.61c.79 0 1.51-.47 1.83-1.19l6.43-14.46h3.59c.79 0 1.51-.47 1.83-1.19l3.13-7.09a2 2 0 0 0-1.79-2.89h-1.8l1.81-4.04h5.01c.79 0 1.5-.46 1.82-1.18l3.22-7.17c.28-.62.22-1.34-.14-1.91-.38-.57-1.01-.91-1.69-.91zm0 4z"/><path d="M229.83 44.72h-8.11l17.16-38.49h14.42l-3.43 7.63h-6.3l-3.39 7.58h4.89l-3.37 7.63h-4.89l-6.98 15.65zm-7.4-.46h7.1l6.96-15.65h4.89l2.97-6.71h-4.89l3.81-8.5h6.3l3.02-6.71h-13.4l-16.76 37.57z"/><path d="M238.86 45.49a.998.998 0 0 1-.91-1.41l13.35-29.99c.16-.36.52-.59.91-.59h6.52c.34 0 .65.17.84.46.04.07.08.14.1.21.93-.57 2.01-.94 3.26-.94.11 0 .22 0 .33.01.33.02.63.19.8.48.17.28.2.63.06.93l-3.29 7.39c-.16.36-.52.59-.91.59-.01 0-.26-.01-.37-.01-2.02 0-3.34.67-4.94 4.3-.06.13-8 17.98-8 17.98-.16.36-.52.59-.91.59h-6.84z" class="st1"/><path d="M262.93 14.22c.09 0 .19 0 .28.01l-3.29 7.39c-.12 0-.25-.01-.37-.01-2.74 0-4.28 1.32-5.86 4.9l-8 17.98h-6.85l13.35-29.99h6.52l-1.89 4.24c1.79-2.87 3.67-4.52 6.11-4.52M262.93 12.22c-1.13 0-2.13.25-3.01.67a2.01 2.01 0 0 0-1.18-.39H252.21c-.79 0-1.51.46-1.83 1.19l-13.35 29.99c-.28.62-.22 1.33.15 1.9.37.57 1 .91 1.68.91h6.85c.79 0 1.51-.47 1.83-1.19l8-17.98c1.52-3.45 2.58-3.71 4.03-3.71.09 0 .19 0 .29.01h.08c.79 0 1.5-.46 1.83-1.19l3.29-7.39c.27-.6.22-1.3-.12-1.86a2.01 2.01 0 0 0-1.6-.95c-.15-.01-.28-.01-.41-.01z"/><path d="M245.85 44.72h-7.35l13.56-30.45h7.03L258 16.69c1.73-2.08 3.43-2.83 5.57-2.7l-3.5 7.85c-2.92-.14-4.49.96-6.16 4.75 0 .01-8.06 18.13-8.06 18.13zm-6.64-.46h6.34l7.94-17.85c1.68-3.79 3.36-5.11 6.28-5.03l3.09-6.93c-2.11-.01-4 1.43-5.83 4.4l-.41-.21 1.75-3.91h-6.02l-13.14 29.53z"/><path d="M261.28 45.83c-.76 0-1.56-.03-2.4-.07h-.02c-2.04 0-4.3-.21-5.31-1.76-1.05-1.62-.34-4.03 1.05-7.14l6.98-15.54c2.59-6.78 6.46-8.15 11.85-8.15.77 0 1.58.03 2.43.07h.02c2.04 0 4.3.21 5.3 1.76 1.05 1.62.35 4.03-1.04 7.15l-6.98 15.54c-2.61 6.76-6.48 8.14-11.88 8.14zm9.91-24.3c-.5 0-.65 0-1.28 1.38l-6.29 14.01c-.12.24-.2.42-.25.56.06 0 .12-.01.19-.01.5 0 .65 0 1.28-1.38l6.29-14.01c.12-.24.2-.42.25-.56-.06 0-.12 0-.19.01z" class="st1"/><path d="M273.43 14.16c.76 0 1.55.03 2.39.06 5.27 0 6.02 1.63 3.41 7.5l-6.98 15.54c-2.46 6.37-5.93 7.56-10.97 7.56-.75 0-1.53-.03-2.35-.07-5.32 0-6-1.68-3.41-7.5l6.98-15.54c2.45-6.39 5.88-7.55 10.93-7.55m-10.17 24.31c.11 0 .24-.01.37-.01 1.09 0 1.47-.54 2.12-1.95l6.3-14.02c.78-1.56.47-1.97-.55-1.97-.11 0-.24.01-.37.01-1.09 0-1.47.54-2.12 1.96l-6.3 14.02c-.78 1.55-.47 1.96.55 1.96m10.17-26.31c-5.64 0-9.97 1.5-12.78 8.79l-6.95 15.49c-1.52 3.42-2.27 6.1-.97 8.1 1.26 1.94 3.82 2.21 6.16 2.22.94.04 1.7.07 2.4.07 5.65 0 9.99-1.5 12.82-8.79l6.96-15.49c1.52-3.42 2.27-6.1.97-8.1-1.26-1.94-3.81-2.21-6.16-2.21-.98-.06-1.75-.08-2.45-.08z"/><path d="M262.19 44.99c-6.35.18-10.82.21-6.88-7.82l6.98-15.54c2.66-5.99 4.87-7.63 10.27-7.63 6.35-.18 10.8-.21 6.88 7.82l-6.98 15.54c-2.64 5.92-4.94 7.63-10.27 7.63zm10.37-30.53c-5.23 0-7.25 1.51-9.85 7.36l-6.98 15.54c-3.8 7.72.51 7.26 6.46 7.17 5.16 0 7.28-1.58 9.85-7.36l6.98-15.54c3.79-7.72-.51-7.26-6.46-7.17zm-8.93 24.23c-1.59.17-2.01-.63-1.13-2.28l6.29-14.02c.65-1.42 1.1-2.09 2.33-2.09 1.59-.17 2.01.63 1.13 2.28l-6.3 14.02c-.64 1.42-1.09 2.09-2.32 2.09zm7.49-17.93c-.93 0-1.26.41-1.91 1.82l-6.3 14.02c-.45 1.02-.89 1.81.71 1.63.93 0 1.26-.41 1.91-1.82l6.3-14.02c.45-1.02.89-1.81-.71-1.63z"/><path d="M282.65 45.49c-.34 0-.65-.17-.84-.46s-.21-.64-.07-.95l9.84-22.06c.1-.21.17-.37.22-.5-.46.01-.87.15-1.51 1.55l-9.71 21.83c-.16.36-.52.59-.91.59h-6.85a.998.998 0 0 1-.91-1.41l13.35-29.99c.16-.36.52-.59.91-.59h6.52c.34 0 .65.17.84.46.05.08.09.17.12.25 1.24-.67 2.65-1.02 4.21-1.02.32 0 .64.01.97.04h.04c1.02 0 2.55.15 3.32 1.32.86 1.32.32 3.23-.76 5.68L290.46 44.9c-.16.36-.52.59-.91.59h-6.9z" class="st1"/><path d="M297.86 14.19c.29 0 .59.01.89.04 3.31 0 3.54 1.57 1.77 5.6l-10.96 24.66h-6.9l9.84-22.06c.63-1.36.69-1.9-.4-1.9-.09-.01-.18-.01-.26-.01-1.12 0-1.77.64-2.45 2.13l-9.72 21.84h-6.85l13.35-29.99h6.52l-1.72 3.86c1.55-2.81 3.92-4.17 6.89-4.17m0-2c-1.42 0-2.73.26-3.91.76-.34-.28-.78-.45-1.26-.45H286.16c-.79 0-1.51.46-1.83 1.19l-13.35 29.99c-.28.62-.22 1.33.15 1.9.37.57 1 .91 1.68.91h6.85c.58 0 1.12-.25 1.49-.67.38.42.92.67 1.49.67h6.9c.79 0 1.51-.47 1.83-1.19l10.96-24.66c1.21-2.75 1.79-4.93.68-6.63-1.12-1.72-3.35-1.77-4.2-1.78-.31-.03-.64-.04-.95-.04z"/><path d="M289.7 44.72h-7.41l9.99-22.38c.17-.36.55-1.18.4-1.43-1.32-.49-2.29 0-3.09 1.84l-9.78 21.97h-7.35l13.56-30.45h7.03l-.96 2.16c1.84-2.65 8.07-3.32 9.47-1.46.58.88.34 2.32-.82 4.95l-11.04 24.8zm-6.7-.46h6.4l10.9-24.53c1.06-2.4 1.32-3.79.85-4.51-.34-.52-1.11-.76-2.41-.76-3.2-.23-5.72.77-7.58 4.02l-.41-.21 1.58-3.53h-6.02l-13.15 29.53h6.34l9.66-21.7c.54-1.17 1.22-2.26 2.54-2.26 1.48-.16 1.84.69.98 2.23.02-.01-9.68 21.72-9.68 21.72z"/><path d="M294.76 45.49a1.007 1.007 0 0 1-1-1.01c.03-2.5 3.05-9.19 6.99-17.67 1.03-2.21 1.95-4.2 2.56-5.61h-.14a1.001 1.001 0 0 1-.91-1.41l2.56-5.7c.16-.36.52-.59.91-.59h.98l2.65-5.93c.16-.36.52-.59.91-.59h6.85a.998.998 0 0 1 .91 1.41l-2.29 5.11h.9a1.001 1.001 0 0 1 .91 1.41l-2.56 5.7c-.16.36-.52.59-.91.59h-1.76c-.61 1.48-1.6 3.6-2.72 6.01-2.8 6.01-6.63 14.24-6.72 17.3-.02.54-.46.97-1 .97h-7.12z" class="st1"/><path d="m317.12 7.98-2.92 6.52h2.45l-2.56 5.7h-2.44c-1.77 4.67-9.61 19.58-9.76 24.28h-7.12c.04-3.69 8.59-20.34 10.03-24.28h-1.63l2.56-5.7h1.63l2.92-6.52h6.84m0-2h-6.85c-.79 0-1.5.46-1.83 1.18l-2.39 5.34h-.33c-.79 0-1.5.46-1.82 1.18l-2.56 5.7a2 2 0 0 0 .15 1.91c.13.2.29.37.47.51-.57 1.27-1.31 2.87-2.11 4.59-4.13 8.88-7.05 15.37-7.08 18.08-.01.53.2 1.05.58 1.43.38.38.89.59 1.42.59h7.12c1.08 0 1.96-.86 2-1.94.09-2.85 4.03-11.31 6.63-16.91.98-2.1 1.86-3.99 2.48-5.44h1.1c.79 0 1.5-.46 1.82-1.18l2.52-5.62c.14-.27.22-.58.22-.9 0-.9-.59-1.66-1.4-1.91l1.7-3.79c.28-.62.22-1.34-.15-1.9-.38-.58-1.02-.92-1.69-.92zm0 4z"/><path d="M302.09 44.72h-7.54c-.2-3.75 8.46-20.25 9.89-24.28h-1.63l2.76-6.16h1.63l2.92-6.52h7.35l-2.92 6.52H317l-2.77 6.16h-2.44c-1.74 4.59-9.71 19.73-9.7 24.28zm-7.11-.46h6.68c.11-4.3 8.15-19.92 9.83-24.28h2.44l2.35-5.24h-2.45l2.92-6.52h-6.34l-2.92 6.52h-1.63l-2.35 5.24h1.63c-1.56 4.14-9.75 20.32-10.16 24.28z"/><path d="M316.34 45.8c-.34 0-.69-.02-1.05-.05v-.03c-.53.04-1.38.04-2.8.04-2.09 0-4.36-.21-5.37-1.76-1.05-1.62-.34-4.03 1.05-7.14l6.98-15.54c2.79-6.27 5.25-8.09 10.97-8.09l.48-.01c.62-.01 1.21-.02 1.78-.02 2.43 0 4.9.15 5.98 1.89.92 1.49.58 3.67-1.11 7.08l-4.57 10.18c-.16.36-.52.59-.91.59H319c-.24.57-.55 1.2-.88 1.85-.39.79-1 2.01-1.19 2.69.07.02.15.02.21.02.72 0 1.24-1.28 1.71-2.41.19-.47.38-.92.58-1.29.17-.33.51-.53.88-.53h6.41c.33 0 .64.16.82.43.19.27.23.62.11.93-2.15 5.66-4.82 11.17-11.31 11.17zm7.04-20.84c.25-.58.53-1.15.79-1.68.27-.55.65-1.31.8-1.78-.05 0-.1.01-.15.02-.04.01-.09.01-.13.01-.04 0-.16-.01-.16-.01-.61 0-1.46 2.18-1.83 3.12-.04.11-.09.22-.13.33h.81z" class="st1"/><path d="M328.39 14.2c4.57 0 7.36.69 3.97 7.53l-4.59 10.21h-9.45c-.74 2.21-3.71 6.53-1.82 6.53.06 0 .13-.01.21-.02.15.03.3.05.44.05 1.81 0 2.39-2.74 3.18-4.23h6.41c-2.21 5.74-4.66 10.53-10.39 10.53-.31 0-.63-.01-.97-.04h-2.88c-5.32 0-6.01-1.68-3.41-7.5l6.98-15.54c2.61-5.87 4.74-7.5 10.06-7.5.78 0 1.54-.02 2.26-.02m-3.7 6.33c-.05-.01-.11-.01-.16-.01-1.82 0-2.69 4.14-3.51 5.44h3.04c.9-2.54 3.24-5.47 1.08-5.47-.14.01-.28.02-.45.04M328.39 12.2c-.58 0-1.18.01-1.8.02l-.5.01c-6.04 0-8.93 2.11-11.86 8.68l-6.97 15.53c-1.52 3.42-2.27 6.1-.97 8.1 1.27 1.96 3.85 2.22 6.21 2.22h1.44c.51 0 .92 0 1.27-.02v.01c.39.03.77.05 1.14.05 7.66 0 10.52-7.29 12.22-11.72.11-.25.17-.52.17-.81 0-.19-.03-.37-.07-.54.41-.2.74-.54.94-.97l2.29-5.11 1.58-3.51c.28-.62.5-1.12.66-1.54l.03.01c1.25-2.53 2.51-5.72 1.06-8.05-1.37-2.18-4.25-2.36-6.84-2.36z"/><path d="M315.38 44.99c-6.35.22-10.27-.06-6.5-7.82l6.98-15.54c2.66-5.99 4.87-7.63 10.27-7.63 2.17-.02 7.04-.2 7.61 1.4 1.84 2.54-4.81 13.61-5.81 16.77h-9.45c-.32 1.05-2.53 4.9-2.37 5.9 2.64 1.02 2.95-1.89 4.07-4.02h6.91c-2.38 6.19-5.09 11.55-11.71 10.94zm10.75-30.53c-5.23 0-7.25 1.51-9.85 7.36l-6.98 15.54c-1.43 3.21-1.77 4.99-1.14 5.97.51 1.41 5.27 1.22 7.22 1.2 6.17.53 8.72-4.06 11.01-10.02h-5.91c-.76 1.41-1.42 4.4-3.28 4.18-.49-.02-1.15.11-1.48-.37-.55-1.05 2.15-5.45 2.46-6.61h9.45c.96-2.99 7.28-13.68 5.73-16.06-.5-1.39-5.29-1.21-7.23-1.19zm-1.92 11.73h-3.55c.94-1.51 1.84-6.11 4.03-5.89 3.42-.41.27 3.59-.48 5.89zm-2.84-.46h2.54l1.49-3.34c.22-.58.95-1.75-.22-1.63-2.24-.4-2.57 2.69-3.81 4.97z"/><path d="M335.78 45.49c-.34 0-.65-.17-.84-.46s-.21-.64-.07-.95l9.84-22.06c.1-.21.17-.37.22-.5-.46.01-.87.15-1.51 1.55L333.7 44.9c-.16.36-.52.59-.91.59h-6.85a.998.998 0 0 1-.91-1.41l13.35-29.99c.16-.36.52-.59.91-.59h6.52c.34 0 .65.17.84.46.05.08.09.17.12.25 1.24-.67 2.65-1.02 4.21-1.02.32 0 .64.01.98.04h.04c1.02 0 2.55.15 3.32 1.32.86 1.32.32 3.23-.76 5.68L343.6 44.89c-.16.36-.52.59-.91.59h-6.91z" class="st1"/><path d="M350.99 14.19c.29 0 .59.01.89.04 3.31 0 3.54 1.57 1.77 5.6l-10.96 24.66h-6.9l9.84-22.06c.63-1.36.69-1.9-.4-1.9-.09-.01-.18-.01-.26-.01-1.12 0-1.77.64-2.45 2.13l-9.72 21.84h-6.85L339.3 14.5h6.52l-1.72 3.86c1.56-2.81 3.92-4.17 6.89-4.17m0-2c-1.42 0-2.73.26-3.91.76-.34-.28-.78-.45-1.26-.45H339.29c-.79 0-1.51.46-1.83 1.19l-13.35 29.99c-.28.62-.22 1.33.15 1.9.37.57 1 .91 1.68.91h6.85c.58 0 1.12-.25 1.49-.67.38.42.92.67 1.49.67h6.9c.79 0 1.51-.47 1.83-1.19l10.96-24.66c1.21-2.75 1.79-4.93.68-6.63-1.12-1.72-3.35-1.77-4.2-1.78a9.92 9.92 0 0 0-.95-.04z"/><path d="M342.83 44.72h-7.41l9.98-22.38c.17-.36.55-1.18.4-1.43-1.32-.49-2.29 0-3.09 1.84l-9.78 21.97h-7.35l13.56-30.45h7.02l-.97 2.16c1.84-2.65 8.07-3.32 9.47-1.46.58.88.34 2.32-.82 4.95l-11.01 24.8zm-6.69-.46h6.4l10.9-24.53c1.06-2.4 1.32-3.79.85-4.51-.34-.52-1.11-.76-2.41-.76-3.2-.23-5.72.77-7.58 4.02l-.41-.21 1.58-3.53h-6.02L326.3 44.26h6.34l9.66-21.7c.54-1.17 1.22-2.26 2.54-2.26 1.48-.16 1.84.69.99 2.23l-9.69 21.73z"/><path d="M351.39 45.79c-.31 0-.62-.01-.94-.04h-.04c-1.05 0-2.61-.15-3.39-1.36-.75-1.16-.53-2.8.77-5.65l8.68-19.34c1.78-3.92 3.61-6.19 7.68-6.19.22-.02.53-.04.83-.04 1.6 0 2.84.39 3.61 1.13l3.7-8.27c.16-.36.52-.59.91-.59h6.85a1.005 1.005 0 0 1 .94 1.35c-.43 1.17-2.39 5.47-4.86 10.91-4.27 9.38-11.4 25.09-11.54 26.82-.04.52-.48.95-1 .95h-6.52c-.5 0-.92-.36-.99-.85-.01-.04-.01-.09-.02-.14-1.32.87-2.9 1.31-4.67 1.31zm13.81-24.26c-.48 0-.62 0-1.24 1.33l-6.32 14.11c-.1.21-.17.38-.22.51.42 0 .81 0 1.5-1.54l6.14-13.69c.16-.34.25-.57.29-.73-.04 0-.09 0-.15.01z" class="st1"/><path d="M380.06 6.46c-1.26 3.38-16.34 35.33-16.46 38.03h-6.52c-.09-.6.19-1.68.87-3.37-1.52 2.51-3.78 3.68-6.56 3.68-.28 0-.57-.01-.86-.04-3.31 0-3.65-1.58-1.82-5.6l8.68-19.34c1.83-4.02 3.45-5.6 6.76-5.6.28-.02.56-.04.83-.04 2.12 0 3.89.76 3.43 2.97l4.79-10.7h6.86m-22.64 32.02c1.13 0 1.74-.63 2.42-2.13l6.14-13.69c.74-1.54.48-2.14-.55-2.14-.1 0-.21.01-.32.02-1.03 0-1.42.54-2.05 1.9l-6.33 14.13c-.63 1.36-.64 1.9.4 1.9.1.01.2.01.29.01m22.64-34.01h-6.85c-.79 0-1.5.46-1.83 1.18l-3.22 7.19c-.86-.42-1.94-.64-3.18-.64-.3 0-.6.01-.92.04-4.53.03-6.61 2.62-8.5 6.77l-8.69 19.35c-1.06 2.34-1.88 4.76-.7 6.6 1.13 1.76 3.41 1.82 4.26 1.82.32.02.63.04.94.04 1.57 0 2.99-.31 4.26-.91.37.37.88.6 1.43.6h6.52c1.05 0 1.91-.81 1.99-1.85.37-2.14 7.58-17.99 11.45-26.51 2.58-5.67 4.44-9.77 4.89-10.97.23-.61.14-1.3-.23-1.84s-.97-.87-1.62-.87zm0 4z"/><path d="M351.72 44.99c-4.28.29-5.49-1.34-3.23-5.92l8.68-19.34c2.15-4.86 4.25-5.95 8.17-5.73 1.87.03 3 .49 3.3 2.08l4.41-9.84h7.35c-1.45 3.89-16.32 35.13-16.62 38.49h-6.92c-.11-.62-.02-1.16.31-2.21-1.47 1.69-3.2 2.47-5.45 2.47zm12.44-30.53c-3.08 0-4.68 1.33-6.55 5.46l-8.68 19.34c-1.49 3.58-1.97 5.17 1.61 5.27 3.01.2 5.41-.63 7.22-3.54l.41.21c-.59 1.45-.87 2.46-.87 3.05h6.11c.1-2.4 15.14-34.46 16.3-37.57h-6.34L368 18.67c.11-.98.53-2.81-.2-3.46-.52-.77-2.5-.8-3.64-.75zm-6.6 24.23c-1.53.17-1.88-.67-1.04-2.23l6.33-14.12c.65-1.39 1.08-2.04 2.26-2.04 1.61-.13 1.9.78 1.08 2.44l-6.14 13.69c-.64 1.4-1.28 2.26-2.49 2.26zm7.55-17.93c-.88 0-1.21.42-1.84 1.77l-6.33 14.12c-.21.5-.89 1.72.19 1.58 1.19.08 1.71-.28 2.5-1.98l6.14-13.69c.7-1.61.55-1.84-.66-1.8z"/><path d="M375.37 45.82c-.66 0-1.35-.02-2.07-.06-.31.02-.61.03-.89.03-2.19 0-3.62-.57-4.38-1.75-1.38-2.15.14-5.5 1.61-8.75.33-.72.65-1.43.93-2.11.16-.37.52-.62.92-.62h6.26c-.2-.14-.41-.3-.65-.46-5.24-3.01-2.23-8.86-1.2-10.85 2.7-6.76 6.32-8.08 11.64-8.08.68 0 1.39.02 2.13.06.3-.02.59-.03.86-.03 2.24 0 3.7.58 4.46 1.78 1.39 2.19-.17 5.48-1.81 8.96-.22.47-.44.94-.65 1.4-.16.36-.52.58-.91.58h-6.26c.18.13.39.28.61.44 5.28 2.99 2.24 9.06 1.09 11.35-2.57 6.74-6.38 8.11-11.69 8.11zm3.59-12.29c.01.15-.02.31-.09.45l-1.33 2.93c-.12.23-.19.42-.24.55.04 0 .18-.01.2-.01.04 0 .14.01.14.01.61 0 1.1-1.27 1.43-2.11l.1-.25c.28-.67.41-.97-.21-1.57zm6.54-12.03c-.55 0-.87.29-1.54 1.91-.31.7-.44.98.27 1.62-.01-.11 0-.23.02-.34.09-.37.33-.83.63-1.42.23-.44.65-1.25.81-1.76-.06-.01-.13-.01-.19-.01z" class="st1"/><path d="M387.55 14.17c.68 0 1.39.02 2.14.06.3-.02.59-.03.86-.03 6.77 0 3.37 5.73 1.09 10.73h-6.41c.23-.93 2.72-4.41.87-4.41-.05 0-.11 0-.17.01a3.19 3.19 0 0 0-.42-.03c-1.31 0-1.85 1.04-2.46 2.53-.84 1.85-.04 2.44 2.42 4.18 3.73 2.08 2.76 6.01.73 10.05-2.4 6.25-5.76 7.56-10.81 7.56-.66 0-1.36-.02-2.08-.06-.31.02-.61.03-.88.03-6.96 0-2.96-6.3-.91-11.22h6.47l-1.33 2.93c-.76 1.54-.49 1.97.53 1.97.11 0 .22 0 .34-.01.07.01.14.01.21.01 1.3 0 1.88-1.72 2.39-3 .78-1.85.04-2.44-2.42-4.18-3.69-2.12-2.89-5.75-.86-9.62 2.47-6.28 5.68-7.5 10.7-7.5m0-2c-5.6 0-9.65 1.45-12.55 8.66-2.43 4.69-2.49 8.29-.19 10.73h-3.31c-.81 0-1.54.49-1.85 1.23-.28.66-.59 1.35-.92 2.08-1.58 3.49-3.22 7.09-1.54 9.7.94 1.46 2.7 2.21 5.22 2.21.28 0 .58-.01.89-.03a40 40 0 0 0 2.07.06c5.55 0 9.82-1.49 12.64-8.75 2.47-4.96 2.57-8.7.32-11.14h3.31c.78 0 1.49-.46 1.82-1.17.21-.46.43-.92.65-1.39 1.69-3.58 3.43-7.28 1.75-9.93-.94-1.49-2.73-2.24-5.3-2.24-.27 0-.56.01-.87.02-.83-.02-1.51-.04-2.14-.04z"/><path d="M376.06 44.99c-11.14.74-8.18-3.65-4.72-11.65h6.97c-.3.95-2.03 3.79-1.86 4.73 2.06.76 2.67-.66 3.43-2.69.71-1.67.15-2.15-2.34-3.9-3.81-2.22-3.02-5.92-.94-9.9 2.92-7.28 6.7-7.86 13.08-7.58 8.39-.46 4.4 6.01 2.09 11.16h-6.92c1.01-2.59 2.88-4.72.62-4.4-1.11-.22-1.73 1.15-2.24 2.37-.74 1.64-.18 2.12 2.34 3.9 3.85 2.17 2.9 6.17.81 10.33-2.57 5.92-4.89 7.63-10.32 7.63zm-4.41-11.19c-1.02 2.3-3.99 8.51-2.69 9.55.49 1.37 5.16 1.21 7.1 1.18 5.19 0 7.41-1.65 9.9-7.36 1.95-3.93 3-7.75-.65-9.77-2.42-1.71-3.42-2.42-2.49-4.47.6-1.39 1.22-2.79 2.66-2.63.48.02 1.1-.09 1.43.37.52.74-1.01 3.12-1.33 4.03h5.9c2.05-4.8 6.03-10.73-1.8-10.24-6.16-.27-9.83.23-12.66 7.31-1.94 3.75-2.84 7.25.79 9.33 2.39 1.69 3.37 2.39 2.5 4.46-.58 1.44-1.2 3.3-2.81 3.13-.48-.02-1.1.09-1.43-.37-.53-.82 1.23-3.55 1.54-4.52h-5.96z"/></svg>