<?xml version="1.0" encoding="UTF-8"?>
<svg width="200px" height="200px" viewBox="0 0 200 200" version="1.1" xmlns="http://www.w3.org/2000/svg" xmlns:xlink="http://www.w3.org/1999/xlink">
    <title>ssr</title>
    <defs>
        <polygon id="path-1" points="0.00316933638 0.0313501144 135.014954 0.0313501144 135.014954 148.876161 0.00316933638 148.876161"></polygon>
        <polygon id="path-3" points="4.57665904e-05 0.105560641 135.559085 0.105560641 135.559085 148.169336 4.57665904e-05 148.169336"></polygon>
    </defs>
    <g stroke="none" stroke-width="1" fill="none" fill-rule="evenodd">
        <g transform="translate(32.000000, 0.000000)">
            <g transform="translate(0.343249, 0.083524)">
                <mask id="mask-2" fill="white">
                    <use xlink:href="#path-1"></use>
                </mask>
                <g id="Clip-2"></g>
                <path d="M50.4880664,96.2912929 L31.0960755,76.8993021 C28.6417277,74.4449542 27.2896682,71.1531922 27.2896682,67.6301945 C27.2896682,64.108341 28.6417277,60.8164645 31.0960755,58.3622311 L58.3352059,31.1231007 C60.7893249,28.6687529 64.081087,27.3166934 67.6031693,27.3166934 C71.126167,27.3166934 74.4170137,28.6687529 76.8722769,31.1231007 L135.014954,89.2669222 L135.014954,50.6785927 L96.1658696,11.8293936 C88.5578604,4.22149886 78.4141533,0.0313386728 67.6031693,0.0313386728 C67.6031693,0.0313386728 67.6040847,0.0313386728 67.6031693,0.0313386728 C56.7941304,0.0313386728 46.6483638,4.22149886 39.0414989,11.8293936 L11.8023684,39.0684096 C4.19435927,46.6763043 0.00316933638,56.8201259 0.00316933638,67.6301945 C0.00316933638,78.4411785 4.19435927,88.5851144 11.8023684,96.1938101 L57.7919565,142.182597 L62.1444737,146.535114 C65.2649542,149.65651 70.3723913,149.65651 73.4937872,146.535114 L81.4381808,138.590721 C84.5598055,135.469325 84.5598055,130.361888 81.4381808,127.241407 L50.4880664,96.2912929 Z" id="Fill-1" fill="#305ECA" mask="url(#mask-2)"></path>
            </g>
            <g transform="translate(0.000000, 51.799771)">
                <mask id="mask-4" fill="white">
                    <use xlink:href="#path-3"></use>
                </mask>
                <g id="Clip-4"></g>
                <path d="M123.747185,52.006762 L82.1515332,10.4109954 L82.1515332,10.4099657 L74.18746,2.44600686 C71.0669794,-0.674588101 65.9595423,-0.674588101 62.8381465,2.44600686 L54.8937529,10.3913158 C51.7721281,13.5128261 51.7721281,18.6192334 54.8937529,21.7407437 L78.2210984,45.0679748 L104.453478,71.3004691 C109.564691,76.4119108 109.564691,84.7272426 104.453478,89.83754 L77.215492,117.07667 C74.7602288,119.531018 71.4693822,120.883078 67.9463844,120.883078 C64.4243021,120.883078 61.1326545,119.531018 58.6784211,117.07667 L4.57665904e-05,58.3984096 L4.57665904e-05,96.9858238 L39.384714,136.370378 C46.9926087,143.979302 57.1363158,148.169348 67.9463844,148.169348 C78.7574828,148.169348 88.9010755,143.979302 96.5090847,136.370378 L123.747185,109.131247 C139.496384,93.3821625 139.496384,67.7568764 123.747185,52.006762" id="Fill-3" fill="#7145A6" mask="url(#mask-4)"></path>
            </g>
        </g>
    </g>
</svg>