<svg xmlns="http://www.w3.org/2000/svg" xml:space="preserve"
  style="enable-background:new 0 0 600 600" viewBox="0 0 600 600"><path d="M498.73 122.41c74.46 16.05 108.63 42.41 99.3 83.79-27.44-19.63-71.37-36.72-106.57-41.87-150.17 83.68-177.29 338.37-384.3 331.53-59.98 0-103.42-20.18-107.06-80.7l9.82-7.21c14.97 18.11 32.59 23.75 55.86 23.75 95.78-3.9 127.83-112.86 181.03-172.19 53.85-64.21 99.85-90.57 160.37-102.99v-2.6c-76.58-10.3-269.76-13.67-261.19 82.76 0 29.45 16.54 47.08 39.27 55.37l-7.27 10.36c-59.66 12.64-125.39-22.45-122.57-78.1C45.28 79.78 376.05 94.86 498.73 122.41z" style="fill:#ff5a55"/></svg>