<?xml version="1.0" standalone="no"?>
<!DOCTYPE svg PUBLIC "-//W3C//DTD SVG 20010904//EN"
 "http://www.w3.org/TR/2001/REC-SVG-20010904/DTD/svg10.dtd">
<svg version="1.0" xmlns="http://www.w3.org/2000/svg"
 width="700.000000pt" height="700.000000pt" viewBox="0 0 700.000000 700.000000"
 preserveAspectRatio="xMidYMid meet">
<metadata>
Created by potrace 1.14, written by Peter Selinger 2001-2017
</metadata>
<g transform="translate(0.000000,700.000000) scale(0.100000,-0.100000)"
fill="#000000" stroke="none">
<path d="M3587 5784 c-1 -1 -110 -4 -242 -8 -132 -3 -253 -8 -270 -10 -16 -2
-81 -7 -144 -11 -62 -4 -121 -8 -130 -10 -9 -1 -54 -6 -101 -10 -47 -4 -92 -9
-101 -10 -9 -2 -40 -6 -70 -10 -54 -6 -222 -32 -269 -41 -14 -2 -41 -7 -60
-10 -187 -31 -555 -134 -695 -194 -46 -20 -78 -33 -85 -35 -21 -5 -154 -74
-218 -111 -180 -106 -321 -236 -414 -379 -106 -164 -140 -290 -141 -520 0
-219 14 -289 85 -428 139 -269 434 -464 808 -533 139 -25 447 -23 521 4 10 4
36 33 58 65 l40 57 -69 34 c-208 103 -323 244 -371 454 -18 81 -20 288 -3 372
50 243 245 443 564 577 140 60 423 140 553 158 23 3 65 10 92 15 28 5 76 12
109 15 32 4 68 8 80 10 11 2 55 6 96 10 41 3 91 8 110 10 261 26 778 21 1150
-11 200 -17 275 -29 278 -46 2 -13 -7 -19 -35 -23 -124 -22 -395 -105 -553
-170 -207 -86 -464 -243 -674 -411 -219 -177 -572 -549 -771 -815 -46 -61
-139 -197 -207 -301 -449 -690 -550 -830 -748 -1029 -238 -240 -449 -368 -711
-433 -173 -43 -310 -52 -456 -30 -178 26 -307 90 -422 207 l-55 56 -57 -41
-58 -40 5 -52 c34 -392 243 -671 595 -794 107 -37 175 -54 313 -76 183 -30
615 -26 826 8 25 4 58 10 73 12 231 37 571 172 802 320 244 155 497 384 725
654 30 36 57 67 60 70 17 16 193 248 296 390 51 70 421 618 574 850 5 8 55 80
110 160 55 80 105 153 112 164 21 30 271 361 277 366 3 3 40 46 81 95 115 139
380 401 505 500 28 22 52 43 55 46 9 10 223 154 273 183 57 32 81 31 268 -15
354 -86 733 -246 976 -411 23 -15 44 -28 47 -28 10 0 18 66 18 144 1 267 -185
482 -556 640 -138 60 -361 131 -500 161 -11 3 -72 16 -136 30 -144 31 -202 43
-310 60 -19 3 -60 10 -90 15 -30 5 -77 12 -105 16 -27 3 -59 8 -70 10 -11 2
-40 6 -65 9 -25 3 -58 8 -75 10 -16 2 -57 7 -90 10 -33 3 -76 8 -95 10 -131
16 -281 29 -470 40 -58 4 -127 8 -155 10 -76 6 -683 22 -688 19z"/>
</g>
</svg>
